<?xml version="1.0" standalone="no"?>
<!DOCTYPE svg PUBLIC "-//W3C//DTD SVG 20010904//EN"
 "http://www.w3.org/TR/2001/REC-SVG-20010904/DTD/svg10.dtd">
<svg version="1.0" xmlns="http://www.w3.org/2000/svg"
 width="730.000000pt" height="140.000000pt" viewBox="0 0 730.000000 140.000000"
 preserveAspectRatio="xMidYMid meet">

<g transform="translate(0.000000,140.000000) scale(0.100000,-0.100000)"
fill="#000000" stroke="none">
<path d="M2133 1281 c3 -12 -3 -27 -14 -37 -10 -9 -19 -25 -19 -34 0 -22 37
-33 44 -14 6 16 42 19 51 4 3 -5 15 -10 26 -10 17 0 19 5 13 38 -7 45 -36 72
-76 72 -25 0 -29 -3 -25 -19z m47 -31 c0 -5 -4 -10 -10 -10 -5 0 -10 5 -10 10
0 6 5 10 10 10 6 0 10 -4 10 -10z"/>
<path d="M2082 1120 c0 -14 2 -19 5 -12 2 6 2 18 0 25 -3 6 -5 1 -5 -13z"/>
<path d="M2252 1120 c0 -14 2 -19 5 -12 2 6 2 18 0 25 -3 6 -5 1 -5 -13z"/>
<path d="M1843 1035 c0 -23 1 -24 13 -8 17 23 17 33 0 33 -8 0 -13 -10 -13
-25z"/>
<path d="M1766 1031 c-3 -5 1 -11 9 -14 9 -4 12 -1 8 9 -6 16 -10 17 -17 5z"/>
<path d="M2083 1026 c-134 -44 -231 -169 -249 -320 -4 -30 -4 -66 0 -80 l6
-26 40 20 c31 16 40 26 40 46 0 13 7 27 15 30 8 4 15 18 15 33 0 19 8 32 25
41 13 7 26 20 28 29 4 13 5 13 6 1 0 -8 10 -21 21 -28 18 -11 20 -10 20 15 0
14 7 34 16 44 15 17 17 16 35 -2 15 -15 19 -33 19 -84 0 -54 3 -67 20 -77 11
-7 20 -17 20 -23 0 -5 20 -23 45 -38 25 -16 54 -40 64 -53 10 -13 27 -24 37
-23 11 0 14 3 7 6 -23 9 -14 21 21 27 19 4 40 14 47 23 12 14 12 16 -1 8 -13
-7 -13 -6 -2 7 7 9 27 21 43 27 25 9 31 8 35 -7 11 -32 27 -62 35 -62 13 0 22
105 14 162 -16 118 -107 243 -210 289 -58 26 -158 33 -212 15z m122 -56 c17 0
20 -16 5 -25 -5 -3 -10 -14 -10 -23 0 -12 -8 -17 -30 -17 -22 0 -30 5 -30 17
0 9 -4 20 -10 23 -15 9 -12 25 4 25 7 0 19 7 27 16 11 14 13 14 21 0 5 -9 16
-16 23 -16z m-248 -116 c-3 -3 -12 -4 -19 -1 -8 3 -5 6 6 6 11 1 17 -2 13 -5z
m68 -14 c-3 -5 -12 -7 -20 -3 -21 7 -19 13 6 13 11 0 18 -4 14 -10z m290 -50
c4 -7 12 -7 25 0 10 5 31 10 47 9 l28 -1 -30 -10 c-16 -6 -37 -17 -46 -25 -11
-9 -18 -11 -21 -3 -2 6 -21 17 -43 25 l-40 14 37 1 c20 0 40 -5 43 -10z m-57
-48 c-18 -13 -24 -13 -52 0 l-31 15 52 0 c48 -1 51 -2 31 -15z m157 -12 c-22
-8 -57 -1 -50 9 2 4 19 5 37 3 27 -4 29 -6 13 -12z m-90 -30 c-22 -8 -57 -1
-50 9 2 4 19 5 37 3 27 -4 29 -6 13 -12z"/>
<path d="M1860 1020 c0 -5 5 -10 10 -10 6 0 10 5 10 10 0 6 -4 10 -10 10 -5 0
-10 -4 -10 -10z"/>
<path d="M1740 991 c-5 -11 -10 -28 -10 -37 0 -26 23 -84 33 -84 4 0 5 -4 2
-10 -3 -5 1 -10 9 -10 13 0 13 3 0 28 -7 15 -14 33 -14 40 0 7 -4 10 -10 7
-13 -8 -13 41 0 66 6 10 8 19 6 19 -3 0 -10 -9 -16 -19z"/>
<path d="M1771 966 l-24 -31 28 27 c16 15 27 29 24 31 -2 3 -15 -10 -28 -27z"/>
<path d="M2803 976 c-36 -16 -53 -43 -53 -81 0 -51 13 -62 128 -106 12 -5 22
-17 22 -27 0 -26 -51 -27 -83 -2 -26 21 -26 21 -46 1 -11 -11 -23 -16 -27 -13
-4 4 3 -8 16 -26 18 -27 27 -32 44 -27 11 4 40 8 63 9 23 1 45 5 49 9 4 4 14
1 23 -5 9 -7 13 -9 9 -4 -4 5 -1 15 7 23 20 20 19 66 -2 91 -10 11 -39 28 -65
37 -52 19 -74 38 -63 55 9 15 37 12 63 -6 21 -14 25 -14 48 1 29 19 28 31 -7
57 -33 25 -87 31 -126 14z m-8 -256 c10 -11 16 -20 13 -20 -3 0 -13 9 -23 20
-10 11 -16 20 -13 20 3 0 13 -9 23 -20z"/>
<path d="M3316 980 c-95 -30 -136 -156 -77 -239 21 -28 72 -68 57 -43 -3 6 -2
14 4 17 6 4 10 3 9 -2 -1 -4 -1 -13 0 -19 1 -14 107 -18 116 -4 5 8 12 7 23
-2 9 -7 13 -8 9 -2 -3 6 0 11 8 11 11 0 12 -5 4 -21 -9 -19 -9 -20 4 -3 8 9
19 17 26 17 14 0 14 13 0 27 -8 8 -6 19 5 41 35 67 11 165 -48 201 -39 24
-101 33 -140 21z m105 -89 c21 -22 29 -39 29 -65 0 -42 -5 -44 -37 -14 l-23
22 -22 -22 c-21 -21 -21 -22 -3 -42 22 -25 16 -33 -19 -24 -56 14 -83 85 -50
132 33 48 84 53 125 13z"/>
<path d="M3045 968 c-60 -195 -64 -221 -37 -238 15 -10 15 -11 0 -6 -10 3 -22
-4 -32 -19 -14 -21 -14 -24 -1 -19 8 4 15 11 15 17 0 6 6 3 13 -7 11 -16 15
-16 25 -3 7 8 11 20 10 27 -2 9 17 13 63 14 55 1 65 -2 62 -15 -3 -8 3 -21 11
-28 11 -9 16 -10 16 -2 0 6 -6 11 -12 11 -7 0 -5 5 5 11 9 6 14 15 11 21 -4 7
-2 8 5 4 9 -6 9 -11 -1 -24 -11 -14 -10 -15 6 -9 15 6 17 5 8 -6 -9 -10 -8
-14 3 -14 20 0 19 10 -5 57 -11 22 -20 54 -20 71 0 18 -10 63 -22 101 l-22 68
-48 0 c-30 0 -50 -5 -53 -12z m73 -123 c7 -25 12 -49 12 -54 0 -10 -46 -8 -56
2 -8 8 16 97 25 97 4 0 12 -20 19 -45z"/>
<path d="M3530 943 c0 -21 5 -55 10 -75 8 -27 8 -50 0 -79 -11 -39 -10 -43 19
-71 17 -17 31 -26 31 -20 0 6 -7 17 -15 26 -19 18 -20 33 -2 17 8 -6 18 -7 22
-3 5 4 5 2 1 -5 -8 -14 27 -53 47 -53 8 0 7 4 -3 10 -13 8 -12 10 3 10 9 0 17
-4 17 -9 0 -6 9 -9 20 -8 11 1 20 5 20 9 0 4 5 7 11 5 6 -1 19 9 29 23 14 19
20 51 24 143 l6 117 -40 0 -40 0 0 -110 c0 -107 -1 -111 -24 -121 -17 -8 -29
-8 -45 0 -19 11 -21 20 -21 121 l0 110 -35 0 c-34 0 -35 -1 -35 -37z m175
-223 c4 -6 11 -7 17 -4 7 4 8 2 4 -5 -6 -9 -12 -9 -24 1 -10 7 -19 14 -21 15
-2 2 1 3 7 3 6 0 14 -5 17 -10z"/>
<path d="M3836 968 c-3 -7 -14 -42 -25 -77 -12 -36 -21 -83 -21 -105 0 -23 -9
-55 -19 -72 l-19 -31 27 1 c14 1 32 5 40 10 11 7 11 10 -3 18 -9 5 -16 14 -16
21 0 8 3 7 9 -2 5 -7 14 -10 21 -6 17 10 111 12 117 2 3 -5 12 -6 20 -3 8 3
21 -1 29 -9 14 -13 13 -15 -6 -15 -12 0 -18 4 -15 10 4 6 -1 7 -11 3 -11 -4
-13 -8 -6 -11 7 -2 10 -8 6 -13 -7 -11 -1 -11 30 1 30 11 30 13 -20 173 l-38
117 -48 0 c-30 0 -50 -5 -52 -12z m72 -124 c7 -26 11 -48 10 -49 -12 -10 -47
-14 -52 -6 -8 12 13 101 23 101 4 0 12 -21 19 -46z m-110 -137 c8 -10 6 -13
-11 -14 -12 0 -16 1 -9 4 6 3 10 9 6 14 -8 14 2 11 14 -4z"/>
<path d="M4036 868 c7 -158 11 -178 34 -178 11 0 20 5 20 11 0 5 -5 7 -12 3
-7 -4 -8 -3 -4 5 6 9 11 9 22 0 12 -9 14 -5 14 30 0 27 4 41 13 41 14 0 57
-52 57 -70 0 -5 5 -10 11 -10 5 0 8 4 5 9 -3 5 5 8 18 7 13 0 22 -4 20 -7 -2
-4 3 -12 11 -19 14 -11 14 -10 6 14 -6 14 -18 40 -27 58 -14 27 -14 33 -2 42
22 16 38 51 38 81 0 66 -46 95 -154 95 l-76 0 6 -112z m151 26 c10 -26 -11
-49 -46 -52 -30 -3 -31 -2 -31 32 0 34 2 36 35 36 24 0 38 -5 42 -16z"/>
<path d="M4273 848 c-1 -91 2 -127 9 -117 7 11 9 9 5 -9 -8 -37 26 -48 65 -21
17 13 28 18 24 11 -6 -11 5 -17 27 -13 4 1 18 3 30 5 13 2 23 11 25 24 3 21
-1 22 -57 22 -58 0 -61 1 -61 25 0 24 3 25 56 25 l55 0 -3 33 c-3 30 -5 32
-43 33 -62 1 -65 3 -65 24 0 18 7 20 60 20 l60 0 0 35 0 35 -92 0 -93 0 -2
-132z m44 -143 c0 -8 -4 -12 -9 -9 -5 3 -6 10 -3 15 9 13 12 11 12 -6z"/>
<path d="M4480 866 c0 -133 9 -168 42 -163 20 3 23 10 26 58 4 85 10 89 44 34
17 -28 34 -54 38 -59 5 -5 25 17 45 49 20 31 38 55 41 53 2 -3 5 -37 6 -78 3
-69 4 -73 26 -75 35 -3 42 28 42 171 l0 124 -37 0 c-36 0 -40 -4 -77 -66 -43
-72 -37 -73 -90 19 -26 43 -31 47 -67 47 l-39 0 0 -114z m286 -159 c1 -7 -6
-13 -16 -13 -9 0 -17 6 -17 12 0 7 7 10 15 6 11 -4 13 -1 7 9 -5 8 -4 11 0 6
5 -4 10 -13 11 -20z"/>
<path d="M4859 879 c-17 -55 -32 -108 -34 -117 -2 -9 -4 -17 -5 -17 -1 0 -3
-8 -5 -18 -2 -13 1 -17 11 -13 18 7 44 -3 44 -17 0 -7 -4 -7 -12 1 -16 16 -25
15 -25 -1 0 -7 10 -13 21 -12 13 1 21 9 21 21 0 16 9 20 66 24 49 4 65 2 62
-7 -7 -18 6 -33 22 -27 8 4 12 11 8 18 -4 6 1 4 11 -4 17 -13 17 -14 -1 -21
-14 -6 -12 -7 8 -6 31 1 31 5 -27 180 l-38 117 -48 0 -47 0 -32 -101z m99 -34
c16 -61 16 -62 -18 -61 -16 1 -30 4 -30 8 0 18 25 98 30 98 3 0 11 -20 18 -45z"/>
<path d="M1720 889 c0 -6 8 -18 17 -27 16 -16 16 -16 10 1 -4 10 -7 23 -7 28
0 5 -4 9 -10 9 -5 0 -10 -5 -10 -11z"/>
<path d="M2081 784 c0 -11 3 -14 6 -6 3 7 2 16 -1 19 -3 4 -6 -2 -5 -13z"/>
<path d="M1690 719 c0 -5 5 -7 10 -4 6 3 10 1 10 -4 0 -6 7 -11 16 -11 9 0 14
5 12 12 -5 14 -48 21 -48 7z"/>
<path d="M2001 714 c0 -11 3 -14 6 -6 3 7 2 16 -1 19 -3 4 -6 -2 -5 -13z"/>
<path d="M2915 700 c-3 -5 -1 -10 4 -10 6 0 11 5 11 10 0 6 -2 10 -4 10 -3 0
-8 -4 -11 -10z"/>
<path d="M1685 690 c3 -5 10 -10 16 -10 5 0 9 5 9 10 0 6 -7 10 -16 10 -8 0
-12 -4 -9 -10z"/>
<path d="M2836 691 c9 -9 45 -11 39 -2 -3 6 -14 9 -25 8 -10 -1 -17 -3 -14 -6z"/>
<path d="M4805 690 c3 -5 8 -10 11 -10 2 0 4 5 4 10 0 6 -5 10 -11 10 -5 0 -7
-4 -4 -10z"/>
<path d="M2000 676 c0 -9 5 -16 10 -16 6 0 10 4 10 9 0 6 -4 13 -10 16 -5 3
-10 -1 -10 -9z"/>
<path d="M4528 683 c7 -3 16 -2 19 1 4 3 -2 6 -13 5 -11 0 -14 -3 -6 -6z"/>
<path d="M2075 660 c-3 -5 -1 -10 4 -10 6 0 11 5 11 10 0 6 -2 10 -4 10 -3 0
-8 -4 -11 -10z"/>
<path d="M4470 575 l0 -25 315 0 315 0 0 25 0 25 -315 0 -315 0 0 -25z"/>
<path d="M2346 544 c-3 -8 -2 -12 4 -9 6 3 10 1 10 -5 0 -6 5 -8 10 -5 15 9
12 35 -4 35 -8 0 -17 -7 -20 -16z"/>
<path d="M1705 541 c-3 -5 -1 -12 5 -16 5 -3 10 1 10 9 0 18 -6 21 -15 7z"/>
<path d="M2473 528 c-2 -18 0 -20 7 -8 12 18 13 30 2 30 -4 0 -9 -10 -9 -22z"/>
<path d="M1730 525 c0 -8 -5 -15 -11 -15 -5 0 -7 -5 -4 -10 4 -6 12 -4 21 5 9
8 20 13 25 10 5 -4 9 -2 9 3 0 6 -7 13 -16 16 -22 9 -24 8 -24 -9z"/>
<path d="M2300 515 c0 -5 5 -17 10 -25 5 -8 10 -10 10 -5 0 6 -5 17 -10 25 -5
8 -10 11 -10 5z"/>
<path d="M2368 503 c7 -3 10 -9 7 -14 -4 -5 3 -9 14 -9 21 0 38 16 18 18 -7 0
-21 2 -32 5 -11 2 -14 2 -7 0z"/>
<path d="M2330 480 c0 -5 7 -10 15 -10 8 0 15 5 15 10 0 6 -7 10 -15 10 -8 0
-15 -4 -15 -10z"/>
<path d="M2441 477 c-8 -10 -7 -14 4 -14 8 0 12 4 9 8 -2 4 2 10 8 12 8 4 9 6
2 6 -6 1 -17 -5 -23 -12z"/>
<path d="M3090 395 c0 -43 4 -75 10 -75 6 0 10 11 10 25 0 18 5 25 20 25 21 0
60 33 60 50 0 21 -41 50 -70 50 l-30 0 0 -75z m70 40 c16 -19 -3 -45 -31 -45
-14 0 -19 7 -19 30 0 23 5 30 19 30 10 0 24 -7 31 -15z"/>
<path d="M3270 395 c0 -43 4 -75 10 -75 6 0 10 14 10 30 0 20 5 30 15 30 8 0
21 -13 30 -30 9 -16 20 -30 25 -30 14 0 13 7 -5 34 -14 21 -14 24 0 36 36 30
5 80 -51 80 l-34 0 0 -75z m78 31 c4 -20 -13 -36 -40 -36 -13 0 -18 8 -18 31
0 27 3 30 27 27 18 -2 29 -10 31 -22z"/>
<path d="M3450 395 l0 -75 45 0 c25 0 45 5 45 10 0 6 -16 10 -36 10 -31 0 -35
3 -32 22 2 16 12 25 33 29 l30 6 -30 4 c-22 3 -31 10 -33 27 -3 19 1 22 32 22
20 0 36 5 36 10 0 6 -20 10 -45 10 l-45 0 0 -75z"/>
<path d="M3620 395 c0 -43 4 -75 10 -75 6 0 10 14 10 30 0 27 3 30 30 30 17 0
30 5 30 10 0 6 -13 10 -30 10 -25 0 -30 4 -30 25 0 21 5 25 30 25 17 0 30 5
30 10 0 6 -18 10 -40 10 l-40 0 0 -75z"/>
<path d="M3790 395 l0 -75 40 0 c22 0 40 5 40 10 0 6 -13 10 -30 10 -25 0 -30
4 -30 24 0 20 6 25 33 29 l32 4 -32 1 c-28 2 -33 6 -33 27 0 21 5 25 30 25 17
0 30 5 30 10 0 6 -18 10 -40 10 l-40 0 0 -75z"/>
<path d="M3963 395 c0 -44 2 -61 4 -37 2 23 2 59 0 80 -2 20 -4 1 -4 -43z"/>
<path d="M4050 461 c0 -5 10 -11 23 -13 20 -3 23 -10 28 -68 l5 -65 5 65 c4
58 6 65 27 68 44 7 21 22 -33 22 -30 0 -55 -4 -55 -9z"/>
<path d="M4230 412 c0 -66 18 -92 61 -92 39 0 49 18 49 87 0 82 -18 82 -22 1
-3 -58 -5 -63 -27 -66 -31 -5 -41 12 -41 76 0 28 -4 52 -10 52 -6 0 -10 -26
-10 -58z"/>
<path d="M4430 395 c0 -43 4 -75 10 -75 6 0 10 14 10 30 0 40 25 40 48 0 9
-16 20 -30 25 -30 10 0 9 5 -5 35 -9 19 -9 28 0 37 18 18 14 56 -7 68 -11 5
-33 10 -50 10 l-31 0 0 -75z m75 25 c0 -20 -6 -26 -27 -28 -25 -3 -28 0 -28
28 0 28 3 31 28 28 21 -2 27 -8 27 -28z"/>
<path d="M4656 462 c-3 -5 -16 -39 -29 -75 -19 -52 -21 -67 -11 -67 8 0 14 7
14 15 0 11 11 15 40 15 29 0 40 -4 40 -15 0 -8 5 -15 10 -15 14 0 13 6 -14 80
-23 62 -38 81 -50 62z m29 -64 c6 -25 4 -28 -18 -28 -24 0 -25 1 -14 35 11 38
22 36 32 -7z"/>
<path d="M2430 441 c0 -7 -5 -9 -12 -5 -7 5 -8 3 -3 -5 5 -9 10 -10 18 -2 6 6
8 14 4 18 -4 3 -7 1 -7 -6z"/>
<path d="M2256 409 c6 -11 31 -12 37 -1 3 4 -6 8 -19 8 -13 1 -21 -2 -18 -7z"/>
<path d="M2000 399 c0 -7 61 -1 69 7 2 2 -13 3 -33 2 -20 -1 -36 -5 -36 -9z"/>
<path d="M2315 400 c-3 -4 9 -10 25 -12 21 -3 27 -1 20 6 -13 13 -39 17 -45 6z"/>
<path d="M2070 375 c-11 -13 -10 -14 4 -9 9 3 16 10 16 15 0 13 -6 11 -20 -6z"/>
<path d="M2110 381 c0 -4 23 -8 51 -8 28 -1 49 1 46 3 -8 8 -97 13 -97 5z"/>
<path d="M2227 383 c-3 -5 8 -8 25 -9 20 -1 25 2 16 7 -16 11 -35 11 -41 2z"/>
<path d="M1807 372 c-12 -2 -16 -9 -13 -19 4 -11 2 -13 -9 -9 -8 3 -15 1 -15
-4 0 -18 29 -10 43 11 11 15 16 17 20 7 4 -9 6 -9 6 -1 1 15 -10 20 -32 15z"/>
<path d="M2010 370 c0 -5 4 -10 9 -10 6 0 13 5 16 10 3 6 -1 10 -9 10 -9 0
-16 -4 -16 -10z"/>
<path d="M2298 369 c4 -4 20 -10 36 -13 23 -4 27 -3 17 7 -7 7 -23 12 -36 12
-14 1 -22 -2 -17 -6z"/>
<path d="M1975 360 c3 -5 11 -10 16 -10 6 0 7 5 4 10 -3 6 -11 10 -16 10 -6 0
-7 -4 -4 -10z"/>
<path d="M1905 340 c-4 -6 -10 -8 -15 -5 -5 3 -7 -5 -5 -17 4 -19 -3 -26 -43
-43 l-47 -19 37 -11 c48 -13 49 -16 38 -54 -8 -29 -7 -32 8 -26 9 4 44 16 77
28 33 11 62 21 64 23 2 2 -4 15 -13 30 -17 26 -17 26 6 20 l23 -6 -22 11 c-22
11 -32 30 -15 28 19 -3 32 2 32 12 0 8 -4 9 -13 0 -8 -6 -16 -9 -19 -6 -3 3
-20 -2 -39 -10 -19 -9 -24 -14 -12 -11 13 2 26 0 29 -5 3 -5 -5 -9 -18 -10
-23 -1 -23 -1 2 -9 l25 -7 -29 -12 c-21 -9 -32 -9 -40 -1 -8 8 -5 9 9 4 17 -5
16 -2 -5 17 -14 13 -20 20 -13 15 18 -12 16 2 -2 21 -14 14 -14 17 1 34 9 11
14 19 11 19 -3 0 -9 -5 -12 -10z"/>
<path d="M1930 339 c0 -5 5 -7 10 -4 6 3 10 8 10 11 0 2 -4 4 -10 4 -5 0 -10
-5 -10 -11z"/>
<path d="M2117 337 c-3 -8 1 -14 8 -14 7 0 11 6 8 14 -3 7 -6 13 -8 13 -2 0
-5 -6 -8 -13z"/>
<path d="M1810 330 c0 -5 5 -10 10 -10 6 0 10 5 10 10 0 6 -4 10 -10 10 -5 0
-10 -4 -10 -10z"/>
<path d="M2447 325 c-4 -8 -3 -16 1 -19 4 -3 9 4 9 15 2 23 -3 25 -10 4z"/>
<path d="M2070 320 c-8 -5 -10 -10 -5 -10 6 0 17 5 25 10 8 5 11 10 5 10 -5 0
-17 -5 -25 -10z"/>
<path d="M2340 300 c-18 -12 -2 -12 25 0 13 6 15 9 5 9 -8 0 -22 -4 -30 -9z"/>
<path d="M2393 295 c0 -8 4 -12 9 -9 4 3 8 -2 8 -10 0 -9 -8 -17 -17 -17 -10
-1 -4 -5 12 -9 29 -7 29 -8 4 -9 -15 0 -38 8 -53 20 -14 11 -26 17 -27 12 -7
-56 -6 -57 56 -79 33 -12 68 -24 78 -29 12 -5 17 -3 17 10 0 9 -4 14 -9 11 -5
-4 -6 5 -2 21 5 18 18 30 42 38 l34 12 -39 17 c-49 21 -77 21 -70 1 4 -8 1
-15 -5 -15 -6 0 -11 6 -11 14 0 7 -6 19 -13 25 -10 8 -14 7 -14 -4z"/>
<path d="M2120 279 c0 -5 5 -7 10 -4 6 3 10 8 10 11 0 2 -4 4 -10 4 -5 0 -10
-5 -10 -11z"/>
<path d="M2246 282 c-3 -4 4 -9 15 -9 23 -2 25 3 4 10 -8 4 -16 3 -19 -1z"/>
<path d="M2360 280 c0 -5 5 -10 10 -10 6 0 10 5 10 10 0 6 -4 10 -10 10 -5 0
-10 -4 -10 -10z"/>
</g>
</svg>
